<svg xmlns="http://www.w3.org/2000/svg" viewBox="0 0 64 64">
  <defs>
    <linearGradient id="g" x1="0" y1="0" x2="0" y2="1">
      <stop offset="0" stop-color="#FFF2C2"></stop>
      <stop offset="0.5" stop-color="#E3B85C"></stop>
      <stop offset="1" stop-color="#7A5A1E"></stop>
    </linearGradient>
    <radialGradient id="bg" cx="0.5" cy="0.5" r="0.6">
      <stop offset="0" stop-color="#1A140A"></stop>
      <stop offset="1" stop-color="#07060A"></stop>
    </radialGradient>
  </defs>
  <rect width="64" height="64" rx="10" fill="url(#bg)"></rect>
  
  <rect x="5" y="5" width="54" height="54" rx="7" fill="none" stroke="url(#g)" stroke-width="0.6" opacity="0.5"></rect>
  
  <path d="M 14 4 L 50 4" stroke="#F4D37A" stroke-width="0.6" opacity="0.7"></path>
  
  <g transform="translate(32 32)">
    
    <g stroke="url(#g)" stroke-width="0.6" opacity="0.6">
      <line x1="0" y1="-22" x2="0" y2="-13"></line>
      <line x1="0" y1="22" x2="0" y2="13"></line>
      <line x1="-22" y1="0" x2="-13" y2="0"></line>
      <line x1="22" y1="0" x2="13" y2="0"></line>
      <line x1="-15" y1="-15" x2="-9" y2="-9" opacity="0.4"></line>
      <line x1="15" y1="-15" x2="9" y2="-9" opacity="0.4"></line>
      <line x1="-15" y1="15" x2="-9" y2="9" opacity="0.4"></line>
      <line x1="15" y1="15" x2="9" y2="9" opacity="0.4"></line>
    </g>
    
    <path d="M 0 -12 L 12 0 L 0 12 L -12 0 Z" fill="none" stroke="url(#g)" stroke-width="1"></path>
    
    <path d="M 0 -7 L 7 0 L 0 7 L -7 0 Z" fill="url(#g)"></path>
    
    <circle r="1.4" fill="#FFF2C2"></circle>
  </g>
  
  <g stroke="url(#g)" stroke-width="0.8" fill="none" opacity="0.7">
    <path d="M 9 4 L 4 4 L 4 9"></path>
    <path d="M 55 4 L 60 4 L 60 9"></path>
    <path d="M 9 60 L 4 60 L 4 55"></path>
    <path d="M 55 60 L 60 60 L 60 55"></path>
  </g>
</svg>