<svg xmlns="http://www.w3.org/2000/svg" viewBox="0 0 240 240">
  <defs>
    <linearGradient id="g" x1="0" y1="0" x2="0" y2="1">
      <stop offset="0" stop-color="#FFF2C2"></stop>
      <stop offset="0.45" stop-color="#F4D37A"></stop>
      <stop offset="0.65" stop-color="#E3B85C"></stop>
      <stop offset="1" stop-color="#7A5A1E"></stop>
    </linearGradient>
    <radialGradient id="bg" cx="0.5" cy="0.4" r="0.75">
      <stop offset="0" stop-color="#1F1709"></stop>
      <stop offset="1" stop-color="#0A0906"></stop>
    </radialGradient>
    <radialGradient id="bgInner" cx="0.5" cy="0.5" r="0.7">
      <stop offset="0" stop-color="#0A0906"></stop>
      <stop offset="1" stop-color="#000000"></stop>
    </radialGradient>
  </defs>
  <rect width="240" height="240" rx="10" fill="url(#bg)"></rect>
  
  <rect x="6" y="6" width="228" height="228" rx="6" fill="none" stroke="url(#g)" stroke-width="0.7" opacity="0.6"></rect>
  <rect x="11" y="11" width="218" height="218" rx="4" fill="none" stroke="url(#g)" stroke-width="0.4" opacity="0.4"></rect>
  
  <line x1="60" y1="6" x2="180" y2="6" stroke="#F4D37A" stroke-width="0.8" opacity="0.85"></line>
  
  <g fill="url(#g)" opacity="0.85">
    <path d="M 18 18 L 24 18 L 21 21 Z"></path>
    <path d="M 222 18 L 216 18 L 219 21 Z"></path>
    <path d="M 18 222 L 24 222 L 21 219 Z"></path>
    <path d="M 222 222 L 216 222 L 219 219 Z"></path>
  </g>
  
    <g transform="translate(120 56)">
      
      <line x1="-14.0" y1="-0.0" x2="-28.0" y2="-0.0" stroke="url(#g)" stroke-width="0.9" opacity="0.40"></line><line x1="-13.5" y1="-3.6" x2="-27.0" y2="-7.2" stroke="url(#g)" stroke-width="0.9" opacity="0.50"></line><line x1="-12.1" y1="-7.0" x2="-24.2" y2="-14.0" stroke="url(#g)" stroke-width="0.9" opacity="0.60"></line><line x1="-9.9" y1="-9.9" x2="-19.8" y2="-19.8" stroke="url(#g)" stroke-width="0.9" opacity="0.70"></line><line x1="-7.0" y1="-12.1" x2="-14.0" y2="-24.2" stroke="url(#g)" stroke-width="0.9" opacity="0.80"></line><line x1="-3.6" y1="-13.5" x2="-7.2" y2="-27.0" stroke="url(#g)" stroke-width="0.9" opacity="0.90"></line><line x1="0.0" y1="-14.0" x2="0.0" y2="-28.0" stroke="url(#g)" stroke-width="0.9" opacity="1.00"></line><line x1="3.6" y1="-13.5" x2="7.2" y2="-27.0" stroke="url(#g)" stroke-width="0.9" opacity="0.90"></line><line x1="7.0" y1="-12.1" x2="14.0" y2="-24.2" stroke="url(#g)" stroke-width="0.9" opacity="0.80"></line><line x1="9.9" y1="-9.9" x2="19.8" y2="-19.8" stroke="url(#g)" stroke-width="0.9" opacity="0.70"></line><line x1="12.1" y1="-7.0" x2="24.2" y2="-14.0" stroke="url(#g)" stroke-width="0.9" opacity="0.60"></line><line x1="13.5" y1="-3.6" x2="27.0" y2="-7.2" stroke="url(#g)" stroke-width="0.9" opacity="0.50"></line><line x1="14.0" y1="0.0" x2="28.0" y2="0.0" stroke="url(#g)" stroke-width="0.9" opacity="0.40"></line>
      
      <path d="M -14 0 A 14 14 0 0 1 14 0" fill="none" stroke="url(#g)" stroke-width="1"></path>
      
      <circle r="9" fill="url(#g)" opacity="0.9"></circle>
      <circle r="5" fill="#1A140A"></circle>
      <circle r="2" fill="#FFF2C2"></circle>
    </g>
  
    <g transform="translate(120 0)" stroke="url(#g)" fill="none" stroke-width="1">
      
      <rect x="-26" y="80" width="52" height="14" rx="1.5"></rect>
      
      <rect x="-36" y="96" width="72" height="14" rx="1.5" opacity="0.7"></rect>
      
      <rect x="-22" y="96" width="44" height="48" fill="url(#bgInner)" stroke="url(#g)" stroke-width="0.7"></rect>
      <rect x="-20" y="98" width="40" height="44" fill="none"></rect><line x1="-16" y1="108" x2="16" y2="108" stroke="url(#g)" stroke-width="0.4" opacity="0.55"></line><line x1="-16" y1="120" x2="16" y2="120" stroke="url(#g)" stroke-width="0.4" opacity="0.55"></line><line x1="-16" y1="132" x2="16" y2="132" stroke="url(#g)" stroke-width="0.4" opacity="0.55"></line>
      <g transform="translate(0 120)"><path d="M 0 -8 L 8 0 L 0 8 L -8 0 Z" fill="url(#g)"></path><circle r="1.5" fill="#1A140A"></circle></g>
      
      <rect x="-46" y="146" width="92" height="16" rx="1.5"></rect>
      
      <rect x="-58" y="164" width="116" height="16" rx="1.5"></rect>
      
      <rect x="-72" y="182" width="144" height="18" rx="1.5"></rect>
      
      <line x1="-50" y1="184" x2="-50" y2="198" opacity="0.5"></line>
      <line x1="-30" y1="184" x2="-30" y2="198" opacity="0.5"></line>
      <line x1="-10" y1="184" x2="-10" y2="198" opacity="0.5"></line>
      <line x1="10" y1="184" x2="10" y2="198" opacity="0.5"></line>
      <line x1="30" y1="184" x2="30" y2="198" opacity="0.5"></line>
      <line x1="50" y1="184" x2="50" y2="198" opacity="0.5"></line>
    </g>
  
  <line x1="80" y1="216" x2="160" y2="216" stroke="url(#g)" stroke-width="0.4" opacity="0.5"></line>
  <text x="120" y="230" text-anchor="middle" font-family="Limelight, serif" font-size="14" letter-spacing="6" fill="url(#g)" opacity="0.95">SRTI</text>
</svg>